%
M48
M72
T01C0.0130
T02C0.0217
T03C0.0276
T04C0.0400
T05C0.0827
%
T01
X3660Y5077
X3960Y5077
X3810Y5487
X3900Y8197
X4360Y8447
X3660Y9147
X4760Y9597
X5530Y10117
X5820Y9957
X6140Y10057
X6260Y8997
X7010Y8697
X8110Y8867
X8360Y8647
X8410Y8067
X8230Y7787
X8230Y7267
X8810Y7447
X9210Y7267
X9690Y7267
X10000Y7397
X10310Y7277
X11270Y7947
X11870Y7747
X13160Y7447
X11810Y9347
X10360Y8247
X9210Y8597
X9460Y9297
X9760Y9647
X10050Y9827
X10220Y10857
X9900Y10997
X8620Y9837
X7510Y10147
X6160Y11157
X7870Y5517
X8150Y5517
T02
X12285Y6129
X12285Y7664
T03
X11212Y6135
X11212Y10072
X5110Y10072
X5110Y10859
X5110Y9284
X5110Y7709
X5110Y6922
T04
X4560Y6247
X4560Y5247
T05
X8160Y4697
X13199Y9736
X3120Y9736
M30
