G75*
G70*
%OFA0B0*%
%FSLAX24Y24*%
%IPPOS*%
%LPD*%
%AMOC8*
5,1,8,0,0,1.08239X$1,22.5*
%
%ADD10C,0.0060*%
%ADD11C,0.0080*%
%ADD12C,0.0100*%
%ADD13C,0.0110*%
D10*
X005691Y005527D02*
X005691Y005867D01*
X005521Y005697D01*
X005748Y005697D01*
X005890Y005697D02*
X006116Y005697D01*
X006003Y005810D02*
X006003Y005583D01*
X006571Y005583D02*
X006628Y005527D01*
X006741Y005527D01*
X006798Y005583D01*
X006798Y005640D01*
X006741Y005697D01*
X006685Y005697D01*
X006741Y005697D02*
X006798Y005754D01*
X006798Y005810D01*
X006741Y005867D01*
X006628Y005867D01*
X006571Y005810D01*
X006940Y005697D02*
X007166Y005697D01*
X007053Y005810D02*
X007053Y005583D01*
X006610Y006547D02*
X006610Y006647D01*
X006410Y006647D02*
X006410Y006547D01*
X007410Y006947D02*
X007410Y007047D01*
X007610Y007047D02*
X007610Y006947D01*
X007189Y007737D02*
X007189Y009157D01*
X007110Y010097D02*
X007110Y010197D01*
X006910Y010197D02*
X006910Y010097D01*
X006612Y010947D02*
X006442Y010947D01*
X006442Y011287D01*
X006612Y011287D01*
X006669Y011230D01*
X006669Y011003D01*
X006612Y010947D01*
X006300Y010947D02*
X006300Y011287D01*
X006073Y011287D02*
X006300Y010947D01*
X006073Y010947D02*
X006073Y011287D01*
X005941Y011287D02*
X005828Y011287D01*
X005885Y011287D02*
X005885Y010947D01*
X005941Y010947D02*
X005828Y010947D01*
X005686Y011003D02*
X005630Y010947D01*
X005460Y010947D01*
X005460Y011287D01*
X005630Y011287D01*
X005686Y011230D01*
X005686Y011174D01*
X005630Y011117D01*
X005460Y011117D01*
X005630Y011117D02*
X005686Y011060D01*
X005686Y011003D01*
X004510Y009247D02*
X004510Y008947D01*
X004210Y008947D02*
X004210Y009247D01*
X003310Y008947D02*
X003210Y008947D01*
X003210Y008747D02*
X003310Y008747D01*
X003310Y008547D02*
X003210Y008547D01*
X003210Y008347D02*
X003310Y008347D01*
X002900Y007865D02*
X002900Y007638D01*
X002673Y007865D01*
X002616Y007865D01*
X002559Y007809D01*
X002559Y007695D01*
X002616Y007638D01*
X002843Y007511D02*
X002900Y007511D01*
X002900Y007454D01*
X002843Y007454D01*
X002843Y007511D01*
X002843Y007313D02*
X002900Y007256D01*
X002900Y007143D01*
X002843Y007086D01*
X002616Y007313D01*
X002843Y007313D01*
X002616Y007313D02*
X002559Y007256D01*
X002559Y007143D01*
X002616Y007086D01*
X002843Y007086D01*
X002786Y006944D02*
X002559Y006944D01*
X002786Y006944D02*
X002900Y006831D01*
X002786Y006718D01*
X002559Y006718D01*
X005330Y007937D02*
X005330Y009157D01*
X008090Y010547D02*
X008190Y010547D01*
X008190Y010747D02*
X008090Y010747D01*
X010960Y010797D02*
X011060Y010797D01*
X011060Y010597D02*
X010960Y010597D01*
X010960Y010997D02*
X011060Y010997D01*
X011060Y011197D02*
X010960Y011197D01*
X011260Y009787D02*
X011430Y009787D01*
X011486Y009730D01*
X011486Y009617D01*
X011430Y009560D01*
X011260Y009560D01*
X011260Y009447D02*
X011260Y009787D01*
X011628Y009787D02*
X011798Y009787D01*
X011855Y009730D01*
X011855Y009617D01*
X011798Y009560D01*
X011628Y009560D01*
X011628Y009447D02*
X011628Y009787D01*
X011996Y009787D02*
X011996Y009447D01*
X012223Y009447D02*
X012223Y009787D01*
X012110Y009674D01*
X011996Y009787D01*
X011560Y009097D02*
X011560Y008997D01*
X011360Y008997D02*
X011360Y009097D01*
X011960Y008897D02*
X011960Y008797D01*
X012160Y008797D02*
X012160Y008897D01*
X012210Y007397D02*
X011810Y007397D01*
X011810Y006897D02*
X012210Y006897D01*
X012619Y006207D02*
X012619Y005887D01*
X012400Y005887D01*
X012750Y005947D02*
X012750Y006247D01*
X013890Y006247D01*
X013890Y005947D01*
X012750Y005947D01*
X011719Y005887D02*
X011500Y005887D01*
X011500Y006207D01*
X010716Y005697D02*
X010490Y005697D01*
X010603Y005810D02*
X010603Y005583D01*
X010348Y005527D02*
X010121Y005527D01*
X010235Y005527D02*
X010235Y005867D01*
X010121Y005754D01*
X009666Y005697D02*
X009440Y005697D01*
X009298Y005754D02*
X009298Y005810D01*
X009241Y005867D01*
X009128Y005867D01*
X009071Y005810D01*
X009298Y005754D02*
X009071Y005527D01*
X009298Y005527D01*
X009553Y005583D02*
X009553Y005810D01*
X009560Y006297D02*
X009460Y006297D01*
X009460Y006497D02*
X009560Y006497D01*
X010160Y006497D02*
X010260Y006497D01*
X010260Y006297D02*
X010160Y006297D01*
X008760Y006297D02*
X008660Y006297D01*
X008660Y006497D02*
X008760Y006497D01*
D11*
X010615Y006433D02*
X011244Y006433D01*
X011245Y006433D02*
X011261Y006438D01*
X011277Y006446D01*
X011291Y006456D01*
X011303Y006468D01*
X011313Y006483D01*
X011320Y006499D01*
X011324Y006516D01*
X011325Y006533D01*
X011323Y006551D01*
X011323Y007102D02*
X011325Y007120D01*
X011324Y007137D01*
X011320Y007154D01*
X011313Y007170D01*
X011303Y007185D01*
X011291Y007197D01*
X011277Y007207D01*
X011261Y007215D01*
X011245Y007220D01*
X011244Y007220D02*
X010615Y007220D01*
X010614Y007220D02*
X010598Y007215D01*
X010582Y007207D01*
X010568Y007197D01*
X010556Y007185D01*
X010546Y007170D01*
X010539Y007154D01*
X010535Y007137D01*
X010534Y007120D01*
X010536Y007102D01*
X010536Y006551D02*
X010534Y006533D01*
X010535Y006516D01*
X010539Y006499D01*
X010546Y006483D01*
X010556Y006468D01*
X010568Y006456D01*
X010582Y006446D01*
X010598Y006438D01*
X010614Y006433D01*
X011393Y005378D02*
X011393Y005197D01*
X011515Y005289D01*
X011393Y005197D02*
X011393Y005016D01*
X011515Y005111D02*
X011399Y005187D01*
X012925Y006791D02*
X013083Y006791D01*
X013083Y007303D01*
X013634Y007303D01*
X013083Y007303D02*
X012925Y007303D01*
X013083Y006791D02*
X013634Y006791D01*
X013849Y008387D02*
X013849Y008899D01*
X012373Y008899D02*
X012373Y008387D01*
X006963Y008987D02*
X006965Y009002D01*
X006971Y009015D01*
X006980Y009027D01*
X006991Y009036D01*
X007005Y009042D01*
X007020Y009044D01*
X007035Y009042D01*
X007048Y009036D01*
X007060Y009027D01*
X007069Y009016D01*
X007075Y009002D01*
X007077Y008987D01*
X007075Y008972D01*
X007069Y008959D01*
X007060Y008947D01*
X007049Y008938D01*
X007035Y008932D01*
X007020Y008930D01*
X007005Y008932D01*
X006992Y008938D01*
X006980Y008947D01*
X006971Y008958D01*
X006965Y008972D01*
X006963Y008987D01*
D12*
X007881Y009875D02*
X010538Y009875D01*
X010538Y007326D01*
X010430Y007218D01*
X007881Y007218D01*
X007881Y009875D01*
D13*
X002961Y005444D02*
X002961Y005050D01*
X002765Y005247D02*
X003158Y005247D01*
X003108Y006247D02*
X002715Y006247D01*
M02*
