G75*
G70*
%OFA0B0*%
%FSLAX24Y24*%
%IPPOS*%
%LPD*%
%AMOC8*
5,1,8,0,0,1.08239X$1,22.5*
%
%ADD10C,0.0060*%
%ADD11C,0.0050*%
%ADD12C,0.0080*%
%ADD13C,0.0100*%
D10*
X003560Y005547D02*
X003560Y005947D01*
X004060Y005947D02*
X004060Y005547D01*
X005130Y005597D02*
X006270Y005597D01*
X006430Y005597D02*
X007570Y005597D01*
X007760Y005697D02*
X007760Y006097D01*
X007570Y005897D02*
X006430Y005897D01*
X006270Y005897D02*
X005130Y005897D01*
X005540Y006117D02*
X005640Y006117D01*
X005640Y006317D02*
X005540Y006317D01*
X005480Y007167D02*
X005480Y007467D01*
X005780Y007467D02*
X005780Y007167D01*
X006280Y007647D02*
X006280Y007747D01*
X006480Y007747D02*
X006480Y007647D01*
X006730Y007647D02*
X006730Y007747D01*
X006930Y007747D02*
X006930Y007647D01*
X007100Y007647D02*
X007100Y007747D01*
X007300Y007747D02*
X007300Y007647D01*
X008005Y008548D02*
X008005Y010345D01*
X005514Y010345D01*
X005514Y008548D01*
X008005Y008548D01*
X007475Y008967D02*
X007477Y008993D01*
X007483Y009019D01*
X007492Y009043D01*
X007505Y009066D01*
X007521Y009087D01*
X007540Y009105D01*
X007561Y009121D01*
X007585Y009133D01*
X007609Y009141D01*
X007635Y009146D01*
X007662Y009147D01*
X007688Y009144D01*
X007713Y009137D01*
X007737Y009127D01*
X007760Y009113D01*
X007780Y009097D01*
X007797Y009077D01*
X007812Y009055D01*
X007823Y009031D01*
X007831Y009006D01*
X007835Y008980D01*
X007835Y008954D01*
X007831Y008928D01*
X007823Y008903D01*
X007812Y008879D01*
X007797Y008857D01*
X007780Y008837D01*
X007760Y008821D01*
X007737Y008807D01*
X007713Y008797D01*
X007688Y008790D01*
X007662Y008787D01*
X007635Y008788D01*
X007609Y008793D01*
X007585Y008801D01*
X007561Y008813D01*
X007540Y008829D01*
X007521Y008847D01*
X007505Y008868D01*
X007492Y008891D01*
X007483Y008915D01*
X007477Y008941D01*
X007475Y008967D01*
X008310Y009397D02*
X008310Y009497D01*
X008510Y009497D02*
X008510Y009397D01*
X008660Y009397D02*
X008660Y009497D01*
X008860Y009497D02*
X008860Y009397D01*
X008860Y008747D02*
X008860Y008447D01*
X008560Y008447D02*
X008560Y008747D01*
X009580Y008697D02*
X009680Y008697D01*
X009680Y008497D02*
X009580Y008497D01*
X010723Y007432D02*
X010794Y007503D01*
X010936Y007361D02*
X010865Y007291D01*
X011310Y007297D02*
X011410Y007297D01*
X011410Y007097D02*
X011310Y007097D01*
X011310Y006947D02*
X011410Y006947D01*
X011410Y006747D02*
X011310Y006747D01*
X011460Y007597D02*
X011460Y007697D01*
X011660Y007697D02*
X011660Y007597D01*
X011660Y008247D02*
X011660Y008347D01*
X011460Y008347D02*
X011460Y008247D01*
X010250Y006317D02*
X010150Y006317D01*
X010150Y006117D02*
X010250Y006117D01*
X009730Y005897D02*
X010870Y005897D01*
X010870Y005597D02*
X009730Y005597D01*
X009570Y005597D02*
X008430Y005597D01*
X008430Y005897D02*
X009570Y005897D01*
X008950Y006117D02*
X008850Y006117D01*
X008850Y006317D02*
X008950Y006317D01*
X006940Y006317D02*
X006840Y006317D01*
X006840Y006117D02*
X006940Y006117D01*
X005260Y008397D02*
X005260Y008497D01*
X005060Y008497D02*
X005060Y008397D01*
X004910Y008397D02*
X004910Y008497D01*
X004710Y008497D02*
X004710Y008397D01*
X006720Y010947D02*
X006820Y010947D01*
X006820Y011147D02*
X006720Y011147D01*
X008360Y010997D02*
X008460Y010997D01*
X008460Y010797D02*
X008360Y010797D01*
X008360Y010647D02*
X008460Y010647D01*
X008460Y010447D02*
X008360Y010447D01*
X009360Y010797D02*
X009460Y010797D01*
X009460Y010997D02*
X009360Y010997D01*
D11*
X009201Y010573D02*
X009083Y010573D01*
X009083Y010455D01*
X010585Y010447D02*
X010587Y010457D01*
X010592Y010465D01*
X010600Y010470D01*
X010610Y010472D01*
X010620Y010470D01*
X010628Y010465D01*
X010633Y010457D01*
X010635Y010447D01*
X010633Y010437D01*
X010628Y010429D01*
X010620Y010424D01*
X010610Y010422D01*
X010600Y010424D01*
X010592Y010429D01*
X010587Y010437D01*
X010585Y010447D01*
X010618Y010573D02*
X010736Y010455D01*
X010736Y009038D02*
X010736Y008920D01*
X010618Y008920D01*
X009201Y008920D02*
X009083Y008920D01*
X009083Y009038D01*
D12*
X004541Y009630D02*
X004360Y009630D01*
X004452Y009752D01*
X004360Y009630D02*
X004178Y009630D01*
X004274Y009752D02*
X004350Y009636D01*
X004500Y008931D02*
X004500Y008892D01*
X004500Y008931D02*
X003319Y008931D01*
X003319Y008892D01*
X003992Y008688D02*
X003994Y008696D01*
X003999Y008703D01*
X004006Y008707D01*
X004014Y008708D01*
X004022Y008705D01*
X004028Y008700D01*
X004032Y008692D01*
X004032Y008684D01*
X004028Y008676D01*
X004022Y008671D01*
X004014Y008668D01*
X004006Y008669D01*
X003999Y008673D01*
X003994Y008680D01*
X003992Y008688D01*
X004500Y007002D02*
X004500Y006962D01*
X003319Y006962D01*
X003319Y007002D01*
D13*
X012028Y007605D02*
X012028Y008511D01*
X012737Y008511D01*
X013682Y008511D02*
X013958Y008511D01*
X012028Y006188D02*
X012028Y005283D01*
X012737Y005283D01*
X013682Y005283D02*
X013958Y005283D01*
M02*
