G75*
G70*
%OFA0B0*%
%FSLAX24Y24*%
%IPPOS*%
%LPD*%
%AMOC8*
5,1,8,0,0,1.08239X$1,22.5*
%
%ADD10C,0.0000*%
D10*
X002710Y004697D02*
X007110Y004697D01*
X007109Y004697D02*
X007134Y004698D01*
X007159Y004696D01*
X007183Y004690D01*
X007207Y004681D01*
X007229Y004669D01*
X007249Y004654D01*
X007266Y004636D01*
X007282Y004616D01*
X007294Y004594D01*
X007303Y004571D01*
X007309Y004547D01*
X007310Y004547D02*
X007322Y004491D01*
X007337Y004436D01*
X007357Y004382D01*
X007379Y004329D01*
X007406Y004278D01*
X007435Y004229D01*
X007468Y004182D01*
X007504Y004137D01*
X007542Y004094D01*
X007584Y004055D01*
X007628Y004018D01*
X007674Y003984D01*
X007722Y003953D01*
X007773Y003926D01*
X007825Y003902D01*
X007878Y003881D01*
X007933Y003864D01*
X007989Y003851D01*
X008046Y003842D01*
X008103Y003836D01*
X008160Y003834D01*
X008217Y003836D01*
X008274Y003842D01*
X008331Y003851D01*
X008387Y003864D01*
X008442Y003881D01*
X008495Y003902D01*
X008547Y003926D01*
X008598Y003953D01*
X008646Y003984D01*
X008692Y004018D01*
X008736Y004055D01*
X008778Y004094D01*
X008816Y004137D01*
X008852Y004182D01*
X008885Y004229D01*
X008914Y004278D01*
X008941Y004329D01*
X008963Y004382D01*
X008983Y004436D01*
X008998Y004491D01*
X009010Y004547D01*
X009016Y004571D01*
X009025Y004594D01*
X009037Y004616D01*
X009053Y004636D01*
X009070Y004654D01*
X009090Y004669D01*
X009112Y004681D01*
X009136Y004690D01*
X009160Y004696D01*
X009185Y004698D01*
X009210Y004697D01*
X013610Y004697D01*
X013649Y004699D01*
X013688Y004705D01*
X013726Y004714D01*
X013763Y004727D01*
X013799Y004744D01*
X013832Y004764D01*
X013864Y004788D01*
X013893Y004814D01*
X013919Y004843D01*
X013943Y004875D01*
X013963Y004908D01*
X013980Y004944D01*
X013993Y004981D01*
X014002Y005019D01*
X014008Y005058D01*
X014010Y005097D01*
X014010Y009700D01*
X012786Y009736D02*
X012788Y009776D01*
X012794Y009817D01*
X012804Y009856D01*
X012817Y009894D01*
X012835Y009931D01*
X012856Y009965D01*
X012880Y009998D01*
X012907Y010028D01*
X012937Y010055D01*
X012970Y010079D01*
X013004Y010100D01*
X013041Y010118D01*
X013079Y010131D01*
X013118Y010141D01*
X013159Y010147D01*
X013199Y010149D01*
X013239Y010147D01*
X013280Y010141D01*
X013319Y010131D01*
X013357Y010118D01*
X013394Y010100D01*
X013428Y010079D01*
X013461Y010055D01*
X013491Y010028D01*
X013518Y009998D01*
X013542Y009965D01*
X013563Y009931D01*
X013581Y009894D01*
X013594Y009856D01*
X013604Y009817D01*
X013610Y009776D01*
X013612Y009736D01*
X013610Y009696D01*
X013604Y009655D01*
X013594Y009616D01*
X013581Y009578D01*
X013563Y009541D01*
X013542Y009507D01*
X013518Y009474D01*
X013491Y009444D01*
X013461Y009417D01*
X013428Y009393D01*
X013394Y009372D01*
X013357Y009354D01*
X013319Y009341D01*
X013280Y009331D01*
X013239Y009325D01*
X013199Y009323D01*
X013159Y009325D01*
X013118Y009331D01*
X013079Y009341D01*
X013041Y009354D01*
X013004Y009372D01*
X012970Y009393D01*
X012937Y009417D01*
X012907Y009444D01*
X012880Y009474D01*
X012856Y009507D01*
X012835Y009541D01*
X012817Y009578D01*
X012804Y009616D01*
X012794Y009655D01*
X012788Y009696D01*
X012786Y009736D01*
X013163Y010546D02*
X013218Y010544D01*
X013273Y010539D01*
X013328Y010530D01*
X013382Y010517D01*
X013435Y010501D01*
X013487Y010482D01*
X013537Y010459D01*
X013586Y010433D01*
X013633Y010403D01*
X013678Y010371D01*
X013721Y010336D01*
X013761Y010298D01*
X013799Y010258D01*
X013834Y010215D01*
X013866Y010170D01*
X013896Y010123D01*
X013922Y010074D01*
X013945Y010024D01*
X013964Y009972D01*
X013980Y009919D01*
X013993Y009865D01*
X014002Y009810D01*
X014007Y009755D01*
X014009Y009700D01*
X013163Y010547D02*
X011970Y010547D01*
X011940Y010549D01*
X011910Y010554D01*
X011881Y010563D01*
X011854Y010576D01*
X011828Y010591D01*
X011804Y010610D01*
X011783Y010631D01*
X011764Y010655D01*
X011749Y010681D01*
X011736Y010709D01*
X011727Y010737D01*
X011722Y010767D01*
X011720Y010797D01*
X011720Y011197D01*
X011718Y011227D01*
X011713Y011257D01*
X011704Y011286D01*
X011691Y011313D01*
X011676Y011339D01*
X011657Y011363D01*
X011636Y011384D01*
X011612Y011403D01*
X011586Y011418D01*
X011559Y011431D01*
X011530Y011440D01*
X011500Y011445D01*
X011470Y011447D01*
X004850Y011447D01*
X004820Y011445D01*
X004790Y011440D01*
X004761Y011431D01*
X004734Y011418D01*
X004708Y011403D01*
X004684Y011384D01*
X004663Y011363D01*
X004644Y011339D01*
X004629Y011313D01*
X004616Y011286D01*
X004607Y011257D01*
X004602Y011227D01*
X004600Y011197D01*
X004600Y010799D01*
X004599Y010799D02*
X004597Y010769D01*
X004592Y010739D01*
X004583Y010710D01*
X004571Y010682D01*
X004555Y010656D01*
X004537Y010632D01*
X004515Y010611D01*
X004492Y010592D01*
X004466Y010576D01*
X004438Y010564D01*
X004409Y010555D01*
X004379Y010549D01*
X004349Y010547D01*
X004350Y010547D02*
X003156Y010547D01*
X002707Y009736D02*
X002709Y009776D01*
X002715Y009817D01*
X002725Y009856D01*
X002738Y009894D01*
X002756Y009931D01*
X002777Y009965D01*
X002801Y009998D01*
X002828Y010028D01*
X002858Y010055D01*
X002891Y010079D01*
X002925Y010100D01*
X002962Y010118D01*
X003000Y010131D01*
X003039Y010141D01*
X003080Y010147D01*
X003120Y010149D01*
X003160Y010147D01*
X003201Y010141D01*
X003240Y010131D01*
X003278Y010118D01*
X003315Y010100D01*
X003349Y010079D01*
X003382Y010055D01*
X003412Y010028D01*
X003439Y009998D01*
X003463Y009965D01*
X003484Y009931D01*
X003502Y009894D01*
X003515Y009856D01*
X003525Y009817D01*
X003531Y009776D01*
X003533Y009736D01*
X003531Y009696D01*
X003525Y009655D01*
X003515Y009616D01*
X003502Y009578D01*
X003484Y009541D01*
X003463Y009507D01*
X003439Y009474D01*
X003412Y009444D01*
X003382Y009417D01*
X003349Y009393D01*
X003315Y009372D01*
X003278Y009354D01*
X003240Y009341D01*
X003201Y009331D01*
X003160Y009325D01*
X003120Y009323D01*
X003080Y009325D01*
X003039Y009331D01*
X003000Y009341D01*
X002962Y009354D01*
X002925Y009372D01*
X002891Y009393D01*
X002858Y009417D01*
X002828Y009444D01*
X002801Y009474D01*
X002777Y009507D01*
X002756Y009541D01*
X002738Y009578D01*
X002725Y009616D01*
X002715Y009655D01*
X002709Y009696D01*
X002707Y009736D01*
X002310Y009700D02*
X002310Y005097D01*
X002312Y005058D01*
X002318Y005019D01*
X002327Y004981D01*
X002340Y004944D01*
X002357Y004908D01*
X002377Y004875D01*
X002401Y004843D01*
X002427Y004814D01*
X002456Y004788D01*
X002488Y004764D01*
X002521Y004744D01*
X002557Y004727D01*
X002594Y004714D01*
X002632Y004705D01*
X002671Y004699D01*
X002710Y004697D01*
X002310Y009700D02*
X002312Y009755D01*
X002317Y009810D01*
X002326Y009865D01*
X002339Y009919D01*
X002355Y009972D01*
X002374Y010024D01*
X002397Y010074D01*
X002423Y010123D01*
X002453Y010170D01*
X002485Y010215D01*
X002520Y010258D01*
X002558Y010298D01*
X002598Y010336D01*
X002641Y010371D01*
X002686Y010403D01*
X002733Y010433D01*
X002782Y010459D01*
X002832Y010482D01*
X002884Y010501D01*
X002937Y010517D01*
X002991Y010530D01*
X003046Y010539D01*
X003101Y010544D01*
X003156Y010546D01*
X007747Y004697D02*
X007749Y004737D01*
X007755Y004778D01*
X007765Y004817D01*
X007778Y004855D01*
X007796Y004892D01*
X007817Y004926D01*
X007841Y004959D01*
X007868Y004989D01*
X007898Y005016D01*
X007931Y005040D01*
X007965Y005061D01*
X008002Y005079D01*
X008040Y005092D01*
X008079Y005102D01*
X008120Y005108D01*
X008160Y005110D01*
X008200Y005108D01*
X008241Y005102D01*
X008280Y005092D01*
X008318Y005079D01*
X008355Y005061D01*
X008389Y005040D01*
X008422Y005016D01*
X008452Y004989D01*
X008479Y004959D01*
X008503Y004926D01*
X008524Y004892D01*
X008542Y004855D01*
X008555Y004817D01*
X008565Y004778D01*
X008571Y004737D01*
X008573Y004697D01*
X008571Y004657D01*
X008565Y004616D01*
X008555Y004577D01*
X008542Y004539D01*
X008524Y004502D01*
X008503Y004468D01*
X008479Y004435D01*
X008452Y004405D01*
X008422Y004378D01*
X008389Y004354D01*
X008355Y004333D01*
X008318Y004315D01*
X008280Y004302D01*
X008241Y004292D01*
X008200Y004286D01*
X008160Y004284D01*
X008120Y004286D01*
X008079Y004292D01*
X008040Y004302D01*
X008002Y004315D01*
X007965Y004333D01*
X007931Y004354D01*
X007898Y004378D01*
X007868Y004405D01*
X007841Y004435D01*
X007817Y004468D01*
X007796Y004502D01*
X007778Y004539D01*
X007765Y004577D01*
X007755Y004616D01*
X007749Y004657D01*
X007747Y004697D01*
X012177Y006129D02*
X012179Y006149D01*
X012185Y006169D01*
X012194Y006187D01*
X012207Y006204D01*
X012222Y006217D01*
X012240Y006227D01*
X012260Y006234D01*
X012280Y006237D01*
X012300Y006236D01*
X012320Y006231D01*
X012339Y006223D01*
X012356Y006211D01*
X012370Y006196D01*
X012381Y006178D01*
X012389Y006159D01*
X012393Y006139D01*
X012393Y006119D01*
X012389Y006099D01*
X012381Y006080D01*
X012370Y006062D01*
X012356Y006047D01*
X012339Y006035D01*
X012320Y006027D01*
X012300Y006022D01*
X012280Y006021D01*
X012260Y006024D01*
X012240Y006031D01*
X012222Y006041D01*
X012207Y006054D01*
X012194Y006071D01*
X012185Y006089D01*
X012179Y006109D01*
X012177Y006129D01*
X012177Y007664D02*
X012179Y007684D01*
X012185Y007704D01*
X012194Y007722D01*
X012207Y007739D01*
X012222Y007752D01*
X012240Y007762D01*
X012260Y007769D01*
X012280Y007772D01*
X012300Y007771D01*
X012320Y007766D01*
X012339Y007758D01*
X012356Y007746D01*
X012370Y007731D01*
X012381Y007713D01*
X012389Y007694D01*
X012393Y007674D01*
X012393Y007654D01*
X012389Y007634D01*
X012381Y007615D01*
X012370Y007597D01*
X012356Y007582D01*
X012339Y007570D01*
X012320Y007562D01*
X012300Y007557D01*
X012280Y007556D01*
X012260Y007559D01*
X012240Y007566D01*
X012222Y007576D01*
X012207Y007589D01*
X012194Y007606D01*
X012185Y007624D01*
X012179Y007644D01*
X012177Y007664D01*
M02*
